<svg width="29" height="29" viewBox="0 0 29 29" fill="none" xmlns="http://www.w3.org/2000/svg">
<g id="Frame 144">
<path id="Vector" d="M14.4663 0C6.47301 0.0192563 0 6.50382 0 14.5C0 22.5077 6.4913 29 14.5 29C22.5087 29 29 22.5087 29 14.5C29 6.50382 22.527 0.0192563 14.5356 0H14.5337C14.5112 0 14.4888 0 14.4663 0Z" fill="white"/>
<path id="Vector_2" d="M21.8107 19.1605C21.5383 19.613 21.1735 20.0036 20.74 20.3069C20.3064 20.6103 19.8138 20.8196 19.2939 20.9213C18.5171 21.0627 17.7174 21.013 16.9643 20.7763C16.2557 20.5557 15.5611 20.2928 14.8842 19.9891C12.3128 18.704 10.1198 16.7768 8.51936 14.3957C7.64967 13.2925 7.12197 11.9606 7.00094 10.5632C6.98855 9.9827 7.09881 9.4061 7.32456 8.87077C7.55031 8.33545 7.88651 7.85335 8.31136 7.45576C8.4365 7.31445 8.59002 7.20087 8.76201 7.12236C8.93399 7.04385 9.1206 7.00217 9.30977 7H9.89218C10.121 7 10.433 7 10.7242 7.6422C11.0154 8.28441 11.785 10.211 11.889 10.3975C11.9401 10.4969 11.9668 10.6069 11.9668 10.7186C11.9668 10.8302 11.9401 10.9403 11.889 11.0397C11.7971 11.2648 11.6708 11.4744 11.5146 11.6612C11.3274 11.889 11.1194 12.1584 10.953 12.3241C10.7866 12.4898 10.5786 12.697 10.7866 13.0699C11.3525 14.0211 12.0531 14.8863 12.8666 15.6387C13.7526 16.4184 14.7655 17.0419 15.8619 17.4824C16.2363 17.6689 16.4651 17.6482 16.6731 17.4824C16.8811 17.3167 17.6091 16.4052 17.8587 16.0323C18.1083 15.6594 18.3579 15.7216 18.6907 15.8458C19.0235 15.9701 20.8747 16.8609 21.2491 17.0474C21.6235 17.2338 21.8523 17.3167 21.9563 17.4824C22.0466 18.0246 21.9964 18.5808 21.8107 19.0983V19.1605Z" fill="#1E1E1E"/>
</g>
</svg>
