<svg width="29" height="29" viewBox="0 0 29 29" fill="none" xmlns="http://www.w3.org/2000/svg">
<path id="Vector" d="M20.4281 8.67978C20.4338 8.67978 20.4415 8.67978 20.4492 8.67978C20.6505 8.67978 20.8373 8.74236 20.9903 8.8502L20.9874 8.84827C21.0991 8.94552 21.1742 9.08224 21.1925 9.23629V9.23918C21.2118 9.35664 21.2224 9.49144 21.2224 9.62912C21.2224 9.6917 21.2205 9.75332 21.2156 9.81494V9.80628C20.999 12.0872 20.0593 17.6186 19.5817 20.1719C19.3795 21.2532 18.9819 21.6152 18.5968 21.6499C17.7601 21.7279 17.1246 21.0972 16.3139 20.5657C15.045 19.7329 14.3277 19.2149 13.0962 18.4033C11.6722 17.4664 12.5956 16.9494 13.4062 16.1079C13.619 15.8865 17.3076 12.531 17.3798 12.2268C17.3836 12.2085 17.3856 12.1883 17.3856 12.1671C17.3856 12.092 17.3576 12.0236 17.3124 11.9716C17.2623 11.9389 17.1997 11.9206 17.1343 11.9206C17.0909 11.9206 17.0495 11.9293 17.011 11.9437L17.0129 11.9428C16.8859 11.9716 14.8588 13.3112 10.9318 15.9616C10.5034 16.2995 9.96225 16.5132 9.37301 16.5383H9.36723C8.53247 16.4372 7.77473 16.2514 7.05551 15.9866L7.12676 16.0097C6.22364 15.7151 5.50634 15.5601 5.56796 15.0613C5.6007 14.802 5.95822 14.5366 6.64054 14.2651C10.8435 12.4338 13.6463 11.2267 15.0488 10.6439C16.5961 9.82264 18.3898 9.14675 20.2759 8.70867L20.4271 8.67882L20.4281 8.67978ZM14.4663 0C6.47301 0.0192563 0 6.50382 0 14.5C0 22.5077 6.4913 29 14.5 29C22.5087 29 29 22.5087 29 14.5C29 6.50382 22.527 0.0192563 14.5356 0H14.5337C14.5112 0 14.4888 0 14.4663 0Z" fill="white"/>
</svg>
